
<svg version="1.1" id="Layer_1" xmlns="http://www.w3.org/2000/svg" xmlns:xlink="http://www.w3.org/1999/xlink" x="0px" y="0px"
	 width="100%" viewBox="0 0 400 400" enable-background="new 0 0 400 400" xml:space="preserve">
<path fill="#7451EB" opacity="1.000000" stroke="none" 
	d="
M1.000000,382.000000 
	C1.000000,261.644043 1.000000,141.288055 1.246044,20.805927 
	C1.884598,20.375332 2.480491,20.152260 2.639638,19.754459 
	C5.946938,11.487634 11.689137,5.684233 19.963802,2.362897 
	C20.131241,2.295689 19.994715,1.471195 20.000000,1.000000 
	C140.355972,1.000000 260.711945,1.000000 381.194214,1.246172 
	C381.625092,1.884745 381.848328,2.480431 382.246216,2.639598 
	C390.513336,5.946637 396.313690,11.691789 399.637115,19.964088 
	C399.704376,20.131548 400.528809,19.994816 401.000000,20.000000 
	C401.000000,140.355972 401.000000,260.711945 400.753967,381.194092 
	C400.115601,381.624542 399.519562,381.847534 399.360901,382.245087 
	C396.059082,390.518524 390.292633,396.298676 382.034943,399.637604 
	C381.867096,399.705475 382.004822,400.528992 382.000000,401.000000 
	C261.644043,401.000000 141.288055,401.000000 20.806017,400.754028 
	C20.375626,400.115570 20.152702,399.519775 19.754969,399.360474 
	C11.490661,396.050262 5.685425,390.309479 2.362796,382.035706 
	C2.295590,381.868347 1.471153,382.005096 1.000000,382.000000 
M250.662094,70.830963 
	C192.882324,37.817169 127.185936,49.689640 88.324005,80.028435 
	C105.075256,99.992424 121.814178,119.941719 138.481155,139.805267 
	C174.608734,119.457260 211.991608,131.595184 231.608627,155.721741 
	C252.227386,181.080338 252.906616,217.659088 233.550079,243.834229 
	C215.811279,267.821808 177.329620,284.149139 138.402390,262.255829 
	C121.715851,282.164093 104.997398,302.110443 87.823776,322.599823 
	C133.963425,353.185791 182.445496,360.637848 232.901093,339.479675 
	C289.088867,315.917694 321.122986,272.099792 325.342163,211.411713 
	C329.576904,150.499680 303.215546,103.558067 250.662094,70.830963 
z"/>
<path fill="#000000" opacity="1.000000" stroke="none" 
	d="
M19.530624,1.000000 
	C19.994715,1.471195 20.131241,2.295689 19.963802,2.362897 
	C11.689137,5.684233 5.946938,11.487634 2.639638,19.754459 
	C2.480491,20.152260 1.884598,20.375332 1.246044,20.339886 
	C1.000000,13.740766 1.000000,7.481532 1.000000,1.000000 
	C7.018606,1.000000 13.039927,1.000000 19.530624,1.000000 
z"/>
<path fill="#000000" opacity="1.000000" stroke="none" 
	d="
M401.000000,19.530624 
	C400.528809,19.994816 399.704376,20.131548 399.637115,19.964088 
	C396.313690,11.691789 390.513336,5.946637 382.246216,2.639598 
	C381.848328,2.480431 381.625092,1.884745 381.660278,1.246172 
	C388.259247,1.000000 394.518463,1.000000 401.000000,1.000000 
	C401.000000,7.018606 401.000000,13.039927 401.000000,19.530624 
z"/>
<path fill="#000000" opacity="1.000000" stroke="none" 
	d="
M1.000000,382.469360 
	C1.471153,382.005096 2.295590,381.868347 2.362796,382.035706 
	C5.685425,390.309479 11.490661,396.050262 19.754969,399.360474 
	C20.152702,399.519775 20.375626,400.115570 20.339975,400.754028 
	C13.740767,401.000000 7.481534,401.000000 1.000000,401.000000 
	C1.000000,394.981384 1.000000,388.960083 1.000000,382.469360 
z"/>
<path fill="#000000" opacity="1.000000" stroke="none" 
	d="
M382.469360,401.000000 
	C382.004822,400.528992 381.867096,399.705475 382.034943,399.637604 
	C390.292633,396.298676 396.059082,390.518524 399.360901,382.245087 
	C399.519562,381.847534 400.115601,381.624542 400.753967,381.660126 
	C401.000000,388.259247 401.000000,394.518463 401.000000,401.000000 
	C394.981384,401.000000 388.960083,401.000000 382.469360,401.000000 
z"/>
<path fill="#FFFEFF" opacity="1.000000" stroke="none" 
	d="
M250.977707,71.015732 
	C303.215546,103.558067 329.576904,150.499680 325.342163,211.411713 
	C321.122986,272.099792 289.088867,315.917694 232.901093,339.479675 
	C182.445496,360.637848 133.963425,353.185791 87.823776,322.599823 
	C104.997398,302.110443 121.715851,282.164093 138.402390,262.255829 
	C177.329620,284.149139 215.811279,267.821808 233.550079,243.834229 
	C252.906616,217.659088 252.227386,181.080338 231.608627,155.721741 
	C211.991608,131.595184 174.608734,119.457260 138.481155,139.805267 
	C121.814178,119.941719 105.075256,99.992424 88.324005,80.028435 
	C127.185936,49.689640 192.882324,37.817169 250.977707,71.015732 
z"/>
</svg>