<?xml version="1.0" encoding="utf-8"?>
<!-- Generator: Adobe Illustrator 19.2.1, SVG Export Plug-In . SVG Version: 6.00 Build 0)  -->
<svg version="1.1" id="layer" xmlns="http://www.w3.org/2000/svg" xmlns:xlink="http://www.w3.org/1999/xlink" x="0px" y="0px"
	 viewBox="0 0 652 652" style="enable-background:new 0 0 652 652;" xml:space="preserve">
<style type="text/css">
	.st0{fill:#5134C9;}
	.st1{fill:#FFFFFF;}
</style>
<rect x="76.9" y="75" class="st0" width="500" height="500"/>
<path class="st1" d="M194.4,494.3v-0.2c0-12.9-7.5-19.7-26.7-24.4c-15.9-3.8-20.2-6.6-20.2-13.4V456c0-6,5.7-10.2,13.9-10.2
	c7.5,0,15,2.8,22.8,8.6l7.7-10.8c-8.8-7-18.7-10.4-30.2-10.4c-16.8,0-28.5,9.9-28.5,24.2v0.2c0,15.3,9.8,20.5,27.8,24.9
	c16.3,3.8,19.1,7.2,19.1,13v0.2c0,6.4-6.1,10.8-15.1,10.8c-9.6,0-17.8-3.3-26.5-10.8l-8.6,10.2c9.8,8.7,21.8,13.3,34.8,13.3
	C182.7,519.2,194.4,509.4,194.4,494.3z M237,466.5c8.8,0,13.8,5.7,13.8,15.7V518h14.1v-40.2c0-14.8-8.6-24-22.4-24
	c-8.2,0-14.4,3.5-19.6,11l-0.4,0.5v-34.4h-14.2V518h14.2v-35.6C222.5,472.7,228.2,466.5,237,466.5z M278.2,430.8h15.2v13.4h-15.2
	V430.8z M278.7,456.1h14.2V518h-14.2V456.1z M345.5,456.2h-16.8v-3.7c0-6.5,2.9-9.8,8.6-9.8c3.1,0,5.6,0.6,8.3,1.5v-11.8
	c-2.9-0.9-6.3-1.6-11.7-1.6c-6.1,0-10.7,1.6-14,5c-3.4,3.4-5.1,8.6-5.1,15.5v4.9h-8v11.7h8V518h14.1v-50.2h16.6L345.5,456.2
	L345.5,456.2z M382.7,519.1c5,0,9-1,12.9-3.2v-11.4c-2.9,1.4-5.7,2-8.8,2c-5.4,0-8-2.7-8-8.1v-30.6h17v-12.1h-17v-18.1h-14.1v18.1
	h-8v12.1h8v32.8C364.6,513,370.5,519.1,382.7,519.1z"/>
</svg>
